<?xml version="1.0" standalone="no"?>
<!DOCTYPE svg PUBLIC "-//W3C//DTD SVG 20010904//EN"
 "http://www.w3.org/TR/2001/REC-SVG-20010904/DTD/svg10.dtd">
<svg version="1.0" xmlns="http://www.w3.org/2000/svg"
 width="50px" height="50px" viewBox="0 0 96.000000 96.000000"
 preserveAspectRatio="xMidYMid meet">

<g transform="translate(0.000000,96.000000) scale(0.100000,-0.100000)"
fill="myColor" stroke="none">
<path d="M397 920 c-79 -14 -169 -62 -232 -125 -183 -183 -175 -475 17 -652
173 -158 448 -150 617 18 218 218 155 590 -122 720 -97 45 -176 56 -280 39z
m118 -124 c18 -8 38 -23 44 -34 15 -27 14 -294 0 -325 -23 -51 -109 -63 -156
-23 -28 24 -28 26 -31 158 -4 161 5 203 51 223 41 18 50 18 92 1z m-192 -312
c9 -82 66 -136 144 -137 89 -1 152 57 156 142 1 38 3 41 29 41 24 0 28 -4 28
-26 0 -81 -72 -184 -139 -199 -26 -5 -31 -11 -31 -35 0 -25 4 -29 33 -32 28
-3 32 -7 35 -36 l3 -32 -110 0 -111 0 0 29 c0 30 14 41 56 41 19 0 24 5 24 25
0 19 -8 28 -37 40 -80 33 -133 108 -133 185 0 35 3 40 24 40 20 0 24 -6 29
-46z"/>
</g>
</svg>
